<svg xmlns="http://www.w3.org/2000/svg" viewBox="0 0 220 100">
  <defs>
    <style>
      .cls-1 {
        fill: none;
        stroke: #FFF;
        stroke-linecap: round;
        stroke-linejoin: round;
        stroke-width: 10px;
      }
    </style>
  </defs>
  <title>Monviso-nero</title>
  <g id="Logo">
    <path id="Monviso" class="cls-1" d="M9.52,84.38a1.23,1.23,0,0,1,1.77-.67c1.41.51.45-.77,1.54-1s.77-.83,1.93-.26,0-.39.32-.83a1.9,1.9,0,0,1,1.16-.83c.32,0-.06-1.54.26-1.61s.58.9.83.64.26-.19.45-.9,1.67-4.3,2.18-4.24.45-.32.83.19.83-.58,1-.9.32,0,.64,0,.13-.26.39-.45.64.06.77-.13.06-.71.51-.13.71.45,1.16.19,2.83-.71,2.89-1.09,1-.77,2-.26c1,.26.19-2.12,1.22-2.38s1.41-.45,3,.45c.64.39.58-1.09,1.54-1.22s2.38-2.83,5.33-.9,3.28,3.4,4,3.21,1.16.06,1.22-.19.19.64.58.45.71-.32,1,.19.13-.32.71-.45.58.26.77.13.58-.19.45-1.86.06-3.34.45-3.47-.13-1,.13-1.09a1,1,0,0,1,.9-.19c.45.13.64-.26.64-.77s1.35-.13,1.93-2.06c.58-.45.26.32,1.28-1.22s2.44-4.62,4.11-4.43,1.09-.58,1.48-.9.58-.26,1-.64.39-4.37,1.67-5,3.53,2.76,4.3,2.7a2.57,2.57,0,0,0,2.18-1.61c.26-1,.58-.32,1-.45s.77-.77,1.22-.71,1.22-.26,1.09-1.35.32-2.7,1.16-1.48c.64,1,.32.32.83.45s.83,1.22,1.16,1.16a2,2,0,0,0,1.35-1.41c.19-.9,1.09-6.55,1.61-6.87s1-2.76,3-1.41c1.35,1.09.77-.71,1-1s.39-1.61,2.44-.13c1,.13.58-1.48,1.67-1.93s1.28-2.57,1.8-2.57,1-.06,1.16.26.83-.58,1.41-.26.83-1.73,1.61-2.12A14.17,14.17,0,0,0,97,27.77c.71-1.09,2.25-3.15,2.83-3s1.28-.83,1.73-1.28,2.31-3,2.83-3,.9-1.41,1.54-2.18,1.67-2.83,2.63-2.7a20.79,20.79,0,0,1,2.5.39,1.41,1.41,0,0,0,1.35-.13,1.22,1.22,0,0,1,1.67.19,16.64,16.64,0,0,0,1.8,1.48,3.47,3.47,0,0,1,.45.9c.13.45.39.13.71.71s3.08,5.39,3.28,5.39A6.27,6.27,0,0,0,122.2,22c.39-1.09,1.93-.51,2.57.13s.9,1.48,1.48,1,5.2,3.08,5.52,4,.77.71.77,1-.13.71.32.77.64,1.54.83,2a3.67,3.67,0,0,1,.51,2.12c-.06.71.58.13.83.9s2.89,6.62,7.32,8.67c3.73,2,3.66,3.47,5.39,4.3s1.8,2.25,3,2.38,1.09,1,2.25,1.61,1.61,2,4.95,3.28a8.44,8.44,0,0,1,3,2.89c.27.23,1.13-.84,2-1.93a5.4,5.4,0,0,0,1.73-2.7c.77-1.73,1.61-1.67,2.18-.58.71.58,1.54,1.54,1.73,1.41s.06-.9.71-1,.51-1.48,1.86-1c.77.19.64.45,1.09.45a1.32,1.32,0,0,1,.83.19l.19.13a2.51,2.51,0,0,0,.83-.19c.13-.13.32.06.77.06s.83-.58,2.06-.32c1.09.06,2.31-1.67,3-1.28s.64.9.9,1.16.06-.39.45-.32a3.87,3.87,0,0,1,2.06,1.93c.26.71.32.13.51.26a24.38,24.38,0,0,1,2.7,3.85c.32.83.39-.13.77.77a6.34,6.34,0,0,0,1.86,2.38,8.22,8.22,0,0,1,1.41.77c.64.39.51-.39.9-.06s.83.39,1,1.28.45-.26.71-.13.64.32.9.13,1.22.71,1.48,1.16.83-.26,1.16.51-.06.83.39,1.35,1.09.64,1.09,1.09.9.83,1.16,1,2.12,2.63,2.89,3.08,1.22,1.09,1.86,1.35,2,3.79,4.43,3.92"/>
  </g>
</svg>
